<?xml version="1.0" encoding="utf-8"?>
<svg version="1.1" xmlns="http://www.w3.org/2000/svg" viewBox="0 0 64 64">
  <circle cx="32" cy="32" r="32" fill="#F7931A"/>
  <path fill="#FFFFFF" d="M46.1,27.4c0.6-4.2-2.6-6.4-7-7.9l1.4-5.7l-3.5-0.9l-1.4,5.5c-0.9-0.2-1.9-0.4-2.8-0.7l1.4-5.6l-3.5-0.9l-1.4,5.7c-0.8-0.2-1.5-0.4-2.2-0.5l0-0.1l-4.8-1.2l-0.9,3.7c0,0,2.6,0.6,2.5,0.6c1.4,0.4,1.7,1.3,1.6,2l-1.6,6.6c0.1,0,0.2,0.1,0.4,0.1c-0.1,0-0.3-0.1-0.4-0.1l-2.3,9.2c-0.2,0.4-0.6,1.1-1.6,0.8c0,0.1-2.5-0.6-2.5-0.6l-1.7,4l4.5,1.1c0.8,0.2,1.7,0.4,2.5,0.6l-1.4,5.8l3.5,0.9l1.4-5.7c1,0.3,1.9,0.5,2.8,0.7l-1.4,5.7l3.5,0.9l1.4-5.8c5.9,1.1,10.4,0.7,12.3-4.7c1.5-4.3-0.1-6.8-3.2-8.4C44.9,31.6,46.6,29.9,46.1,27.4z M38.4,38.1c-1.1,4.3-8.4,2-10.8,1.4l1.9-7.7C31.9,32.4,39.5,33.6,38.4,38.1z M39.5,27.3c-1,3.9-7.1,1.9-9,1.4l1.8-7C34.1,22.2,40.5,23.2,39.5,27.3z"/>
</svg>
